<svg xmlns="http://www.w3.org/2000/svg" viewBox="0 0 32 32"><defs><style>.cls-1{fill:#fff;}</style></defs><g id="Calque_2" data-name="Calque 2"><g id="Calque_1-2" data-name="Calque 1"><rect class="cls-1" width="32" height="32"/><path d="M11.27,8.08V18.45a29.5,29.5,0,0,1-.09,3,1.79,1.79,0,0,1-.74,1.2,3.92,3.92,0,0,1-1.8.75,21.66,21.66,0,0,1-3.41.2H1.8V20.88l.89,0a2.64,2.64,0,0,0,1.16-.21.8.8,0,0,0,.49-.52A7.48,7.48,0,0,0,4.4,19V8.08Z"/><path d="M13.87,8.08V18.45a9.9,9.9,0,0,0,.21,2.47,3,3,0,0,0,1.2,1.47,7.16,7.16,0,0,0,2.64,1.14,16.76,16.76,0,0,0,3.86.39,18.29,18.29,0,0,0,4.34-.46,7.5,7.5,0,0,0,2.81-1.2A2.75,2.75,0,0,0,30,20.7a20.55,20.55,0,0,0,.17-3.44V8.08H23.36V19.71c0,.68,0,1.3,0,1.3,0,1.26-2.62,1.23-2.61,0,0,0,0-.7,0-1.47V8.08Z"/></g></g></svg>